<svg width="385" height="394" viewBox="0 0 385 394" fill="none" xmlns="http://www.w3.org/2000/svg">
<path d="M312.812 24H72.1875C32.3194 24 0 55.0602 0 93.375V324.625C0 362.94 32.3194 394 72.1875 394H312.812C352.681 394 385 362.94 385 324.625V93.375C385 55.0602 352.681 24 312.812 24Z" fill="#1E2A4A"/>
<path opacity="0.55" d="M78.6296 184.975H59.8889C57.1888 184.975 55 187.171 55 189.88V241.383C55 244.091 57.1888 246.288 59.8889 246.288H78.6296C81.3297 246.288 83.5185 244.091 83.5185 241.383V189.88C83.5185 187.171 81.3297 184.975 78.6296 184.975Z" fill="#86DAD3"/>
<path opacity="0.85" d="M123.444 158.406H104.704C102.004 158.406 99.8148 160.602 99.8148 163.311V241.383C99.8148 244.091 102.004 246.287 104.704 246.287H123.444C126.145 246.287 128.333 244.091 128.333 241.383V163.311C128.333 160.602 126.145 158.406 123.444 158.406Z" fill="#86DAD3"/>
<path d="M146.226 246V122.992H179.706V246H146.226ZM163.09 107.368C156.972 107.368 151.93 105.632 147.962 102.16C144.159 98.5227 142.258 93.976 142.258 88.52C142.258 83.064 144.159 78.5173 147.962 74.88C151.93 71.2427 156.972 69.424 163.09 69.424C169.207 69.424 174.167 71.2427 177.97 74.88C181.772 78.5173 183.674 83.064 183.674 88.52C183.674 93.8107 181.772 98.2747 177.97 101.912C174.167 105.549 169.207 107.368 163.09 107.368ZM263.051 248.976C251.147 248.976 240.4 246.248 230.811 240.792C221.222 235.336 213.616 227.731 207.995 217.976C202.539 208.221 199.811 197.061 199.811 184.496C199.811 171.765 202.622 160.605 208.243 151.016C213.864 141.261 221.47 133.656 231.059 128.2C240.648 122.744 251.312 120.016 263.051 120.016C274.955 120.016 285.702 122.744 295.291 128.2C304.88 133.656 312.403 141.261 317.859 151.016C323.48 160.605 326.291 171.765 326.291 184.496C326.291 197.227 323.48 208.469 317.859 218.224C312.238 227.813 304.632 235.336 295.043 240.792C285.619 246.248 274.955 248.976 263.051 248.976ZM262.803 220.704C268.259 220.704 273.136 219.381 277.435 216.736C281.899 214.091 285.454 210.123 288.099 204.832C290.744 199.376 292.067 192.597 292.067 184.496C292.067 176.395 290.744 169.699 288.099 164.408C285.454 158.952 281.899 154.901 277.435 152.256C273.136 149.611 268.424 148.288 263.299 148.288C258.008 148.288 253.131 149.611 248.667 152.256C244.203 154.901 240.648 158.952 238.003 164.408C235.358 169.699 234.035 176.395 234.035 184.496C234.035 192.597 235.358 199.376 238.003 204.832C240.648 210.123 244.12 214.091 248.419 216.736C252.883 219.381 257.678 220.704 262.803 220.704Z" fill="white"/>
<path d="M55 266.725H330" stroke="white" stroke-opacity="0.25" stroke-width="4.8"/>
<path d="M135.504 345.725V289.725H146.304V337.325H170.864V345.725H135.504ZM172.46 345.725L190.22 289.725H207.9L225.58 345.725H214.14L199.26 296.045H198.94L183.74 345.725H172.46ZM181.5 329.645L184.3 321.245H212.86L215.66 329.645H181.5ZM228.941 345.725V289.725H251.901C255.795 289.725 259.075 290.338 261.741 291.565C264.408 292.792 266.408 294.498 267.741 296.685C269.128 298.818 269.821 301.298 269.821 304.125C269.821 306.952 269.208 309.325 267.981 311.245C266.755 313.165 265.128 314.658 263.101 315.725C261.128 316.738 258.968 317.325 256.621 317.485L257.821 316.605C260.381 316.712 262.648 317.405 264.621 318.685C266.648 319.912 268.221 321.565 269.341 323.645C270.515 325.725 271.101 327.992 271.101 330.445C271.101 333.432 270.381 336.072 268.941 338.365C267.555 340.658 265.475 342.472 262.701 343.805C259.981 345.085 256.648 345.725 252.701 345.725H228.941ZM239.741 336.925H250.941C253.875 336.925 256.141 336.258 257.741 334.925C259.341 333.592 260.141 331.672 260.141 329.165C260.141 326.658 259.315 324.712 257.661 323.325C256.008 321.885 253.715 321.165 250.781 321.165H239.741V336.925ZM239.741 313.085H250.141C252.968 313.085 255.128 312.445 256.621 311.165C258.115 309.885 258.861 308.072 258.861 305.725C258.861 303.432 258.115 301.645 256.621 300.365C255.128 299.032 252.941 298.365 250.061 298.365H239.741V313.085Z" fill="white"/>
</svg>
